<svg width="345" height="345" viewBox="0 0 345 345" fill="none" xmlns="http://www.w3.org/2000/svg">
<path d="M50.355 50.8343C17.1162 84.4227 0.484375 124.954 0.484375 172.377C0.484375 219.8 17.1162 260.855 50.355 294.444C83.9434 327.682 124.649 344.314 172.422 344.314C220.195 344.314 260.726 327.682 293.989 294.444C327.578 260.855 344.385 220.15 344.385 172.377C344.385 124.604 327.578 84.4227 293.989 50.8343C260.401 17.2459 219.87 0.439209 172.422 0.439209C124.974 0.439209 83.9434 17.2459 50.355 50.8343Z" fill="#99FFFF"/>
<path d="M50.3555 294.444C83.9439 327.682 124.65 344.314 172.422 344.314C220.195 344.314 260.726 327.682 293.99 294.444C327.578 260.855 344.385 220.15 344.385 172.377C344.385 124.604 327.578 84.4226 293.99 50.8342C293.99 50.8342 369.907 170.654 270.615 269.945C169.875 370.686 50.3555 294.444 50.3555 294.444Z" fill="#00CCFF"/>
<path d="M101.95 91.0904C86.4415 105.4 66.6381 109.945 57.7478 101.229C48.8575 92.5138 54.2016 73.8592 69.7347 59.5498C85.2428 45.2404 105.046 40.6953 113.937 49.4108C122.827 58.1263 117.483 76.781 101.95 91.0904Z" fill="white"/>
</svg>
