<svg width="89" height="103" viewBox="0 0 89 103" fill="none" xmlns="http://www.w3.org/2000/svg">
<g clip-path="url(#clip0_366_58)">
<path d="M40.6094 17.3556C51.7956 17.3556 61.3548 21.3216 69.3207 29.2876C77.2528 37.2196 81.2527 46.8127 81.2527 57.9989C81.2527 69.1851 77.2867 78.7443 69.3207 86.7102C61.3887 94.6423 51.7956 98.6422 40.6094 98.6422C29.4232 98.6422 19.864 94.6762 11.8981 86.7102C3.96603 78.7104 0 69.1512 0 57.965C0 46.7788 3.96603 37.2196 11.932 29.2537C19.864 21.3216 29.4571 17.3217 40.6433 17.3217M40.6433 34.7451C34.1688 34.7451 28.6435 37.0163 24.0673 41.5924C19.5589 46.1686 17.2878 51.66 17.2878 58.1684C17.2878 64.6767 19.5589 70.1004 24.0673 74.6766C28.6435 79.2527 34.1349 81.5239 40.6433 81.5239C47.1516 81.5239 52.5753 79.2527 57.1515 74.6766C61.7276 70.1004 63.9988 64.6089 63.9988 58.1684C63.9988 51.7278 61.7276 46.1686 57.1515 41.5924C52.5753 37.0502 47.0838 34.7451 40.6433 34.7451Z" fill="white"/>
<path d="M49.8635 72.3715C46.4737 75.7951 44.7788 79.9307 44.7788 84.7441C44.7788 89.5576 46.4737 93.7609 49.8635 97.1846C53.2871 100.574 57.4226 102.269 62.3039 102.269C67.1852 102.269 71.2868 100.574 74.6765 97.1846C78.0663 93.7948 79.7951 89.6254 79.7951 84.7441C79.7951 79.8629 78.1002 75.7951 74.6765 72.3715C71.2529 68.9478 67.1174 67.2529 62.3039 67.2529C57.4904 67.2529 53.2871 68.9478 49.8635 72.3715Z" fill="#99FFFF"/>
<path d="M49.8633 97.1846C53.2869 100.574 57.4225 102.269 62.3037 102.269C67.185 102.269 71.2866 100.574 74.6764 97.1846C78.0661 93.7948 79.7949 89.6254 79.7949 84.7441C79.7949 79.8629 78.1 75.7952 74.6764 72.3715C74.6764 72.3715 82.405 84.5746 72.3035 94.6761C62.202 104.778 49.8972 97.1846 49.8972 97.1846" fill="#00CCFF"/>
<path d="M55.1174 76.4731C53.5243 77.9307 51.5243 78.4053 50.6091 77.49C49.6938 76.5748 50.2362 74.7104 51.8294 73.2528C53.4226 71.7952 55.4225 71.3207 56.3378 72.2359C57.253 73.1511 56.7106 75.0155 55.1174 76.4731Z" fill="white"/>
<path d="M48.1687 6.84733C43.6603 11.4235 41.3892 16.9149 41.3892 23.3555C41.3892 29.796 43.6603 35.3553 48.1687 39.9314C52.711 44.4398 58.2363 46.711 64.7446 46.711C71.253 46.711 76.7444 44.4398 81.2528 39.9314C85.829 35.3892 88.1001 29.8638 88.1001 23.3555C88.1001 16.8471 85.829 11.4235 81.2528 6.84733C76.6766 2.27114 71.1852 0 64.7446 0C58.3041 0 52.7449 2.27114 48.1687 6.84733Z" fill="#99FFFF"/>
<path d="M48.1685 39.8975C52.7107 44.4059 58.2361 46.6771 64.7444 46.6771C71.2528 46.6771 76.7442 44.4059 81.2526 39.8975C85.761 35.3891 88.0999 29.8299 88.0999 23.3216C88.0999 16.8132 85.8288 11.3896 81.2526 6.81342C81.2526 6.81342 91.5575 23.0843 78.0662 36.5417C64.4054 50.2024 48.1685 39.8636 48.1685 39.8636" fill="#00CCFF"/>
<path d="M55.1516 12.3048C53.05 14.237 50.3721 14.8472 49.1517 13.6946C47.9314 12.5421 48.6772 9.96589 50.7788 8.03373C52.8805 6.10156 55.5584 5.4914 56.7787 6.64392C57.999 7.83034 57.2533 10.3727 55.1516 12.3048Z" fill="white"/>
</g>
<defs>
<clipPath id="clip0_366_58">
<rect width="88.1" height="102.269" fill="white"/>
</clipPath>
</defs>
</svg>
